<svg width="130" height="95" viewBox="0 0 130 95" fill="none" xmlns="http://www.w3.org/2000/svg">
<path d="M119.167 27.1429V81.4286C119.167 83.2946 117.542 84.8214 115.556 84.8214H72.2222C72.2222 75.4487 64.1424 67.8571 54.1667 67.8571H39.7222C29.7465 67.8571 21.6667 75.4487 21.6667 84.8214H14.4444C12.4583 84.8214 10.8333 83.2946 10.8333 81.4286V27.1429H119.167ZM14.4444 0C6.47743 0 0 6.08594 0 13.5714V81.4286C0 88.9141 6.47743 95 14.4444 95H115.556C123.523 95 130 88.9141 130 81.4286V13.5714C130 6.08594 123.523 0 115.556 0H14.4444ZM61.3889 47.5C61.3889 37.0528 49.3519 30.5232 39.7222 35.7467C35.253 38.1711 32.5 42.6514 32.5 47.5C32.5 57.9472 44.537 64.4768 54.1667 59.2533C58.6359 56.8289 61.3889 52.3486 61.3889 47.5Z" fill="white"/>
<path d="M94.2898 69.1911C98.1641 64.6653 107 53.6963 107 47.535C107 40.0626 100.505 34 92.5 34C84.4948 34 78 40.0626 78 47.535C78 53.6963 86.8359 64.6653 90.7102 69.1911C91.6391 70.2696 93.3609 70.2696 94.2898 69.1911ZM92.5 43.0234C93.7819 43.0234 95.0113 43.4987 95.9177 44.3448C96.8241 45.1909 97.3333 46.3385 97.3333 47.535C97.3333 48.7316 96.8241 49.8792 95.9177 50.7253C95.0113 51.5714 93.7819 52.0467 92.5 52.0467C91.2181 52.0467 89.9887 51.5714 89.0823 50.7253C88.1759 49.8792 87.6667 48.7316 87.6667 47.535C87.6667 46.3385 88.1759 45.1909 89.0823 44.3448C89.9887 43.4987 91.2181 43.0234 92.5 43.0234Z" fill="white"/>
<circle cx="93" cy="77" r="3" fill="white"/>
</svg>
