<svg width="136" height="85" viewBox="0 0 136 85" fill="none" xmlns="http://www.w3.org/2000/svg">
<path d="M0 12.75C0 9.36849 1.3433 6.12548 3.73439 3.73439C6.12548 1.3433 9.36849 0 12.75 0H123.25C126.632 0 129.875 1.3433 132.266 3.73439C134.657 6.12548 136 9.36849 136 12.75V25.5C136 26.6272 135.552 27.7082 134.755 28.5052C133.958 29.3022 132.877 29.75 131.75 29.75C128.368 29.75 125.125 31.0933 122.734 33.4844C120.343 35.8755 119 39.1185 119 42.5C119 45.8815 120.343 49.1245 122.734 51.5156C125.125 53.9067 128.368 55.25 131.75 55.25C132.877 55.25 133.958 55.6978 134.755 56.4948C135.552 57.2918 136 58.3728 136 59.5V72.25C136 75.6315 134.657 78.8745 132.266 81.2656C129.875 83.6567 126.632 85 123.25 85H12.75C9.36849 85 6.12548 83.6567 3.73439 81.2656C1.3433 78.8745 0 75.6315 0 72.25L0 59.5C0 58.3728 0.447767 57.2918 1.2448 56.4948C2.04183 55.6978 3.12283 55.25 4.25 55.25C7.63151 55.25 10.8745 53.9067 13.2656 51.5156C15.6567 49.1245 17 45.8815 17 42.5C17 39.1185 15.6567 35.8755 13.2656 33.4844C10.8745 31.0933 7.63151 29.75 4.25 29.75C3.12283 29.75 2.04183 29.3022 1.2448 28.5052C0.447767 27.7082 0 26.6272 0 25.5V12.75ZM34 4.25V12.75H42.5V4.25H34ZM42.5 29.75V21.25H34V29.75H42.5ZM102 29.75V21.25H93.5V29.75H102ZM93.5 12.75H102V4.25H93.5V12.75ZM42.5 38.25H34V46.75H42.5V38.25ZM102 46.75V38.25H93.5V46.75H102ZM42.5 55.25H34V63.75H42.5V55.25ZM102 63.75V55.25H93.5V63.75H102ZM34 72.25V80.75H42.5V72.25H34ZM93.5 80.75H102V72.25H93.5V80.75Z" fill="white"/>
<path d="M90 43C90 48.8348 87.6822 54.4306 83.5564 58.5564C79.4306 62.6822 73.8348 65 68 65C62.1652 65 56.5695 62.6822 52.4437 58.5564C48.3179 54.4306 46 48.8348 46 43C46 37.1652 48.3179 31.5695 52.4437 27.4437C56.5695 23.3179 62.1652 21 68 21C73.8348 21 79.4306 23.3179 83.5564 27.4437C87.6822 31.5695 90 37.1652 90 43ZM79.0825 34.6675C78.8861 34.4718 78.6522 34.3176 78.3948 34.2143C78.1374 34.1111 77.8619 34.0607 77.5846 34.0664C77.3074 34.072 77.0341 34.1335 76.7812 34.2472C76.5282 34.3609 76.3008 34.5244 76.1125 34.728L66.5618 46.8967L60.806 41.1382C60.415 40.7739 59.8979 40.5756 59.3636 40.585C58.8292 40.5944 58.3194 40.8109 57.9415 41.1888C57.5637 41.5667 57.3472 42.0765 57.3378 42.6108C57.3283 43.1451 57.5267 43.6623 57.891 44.0533L65.1675 51.3325C65.3635 51.5282 65.597 51.6823 65.8539 51.7858C66.1108 51.8893 66.3859 51.94 66.6628 51.9349C66.9397 51.9298 67.2128 51.8689 67.4657 51.756C67.7186 51.643 67.9461 51.4803 68.1347 51.2775L79.1128 37.555C79.487 37.1659 79.6938 36.6455 79.6886 36.1056C79.6835 35.5658 79.4668 35.0494 79.0853 34.6675H79.0825Z" fill="#5B6BA1"/>
</svg>
