<svg width="136" height="85" viewBox="0 0 136 85" fill="none" xmlns="http://www.w3.org/2000/svg">
<path d="M0 12.75C0 9.36849 1.3433 6.12548 3.73439 3.73439C6.12548 1.3433 9.36849 0 12.75 0H123.25C126.632 0 129.875 1.3433 132.266 3.73439C134.657 6.12548 136 9.36849 136 12.75V25.5C136 26.6272 135.552 27.7082 134.755 28.5052C133.958 29.3022 132.877 29.75 131.75 29.75C128.368 29.75 125.125 31.0933 122.734 33.4844C120.343 35.8755 119 39.1185 119 42.5C119 45.8815 120.343 49.1245 122.734 51.5156C125.125 53.9067 128.368 55.25 131.75 55.25C132.877 55.25 133.958 55.6978 134.755 56.4948C135.552 57.2918 136 58.3728 136 59.5V72.25C136 75.6315 134.657 78.8745 132.266 81.2656C129.875 83.6567 126.632 85 123.25 85H12.75C9.36849 85 6.12548 83.6567 3.73439 81.2656C1.3433 78.8745 0 75.6315 0 72.25L0 59.5C0 58.3728 0.447767 57.2918 1.2448 56.4948C2.04183 55.6978 3.12283 55.25 4.25 55.25C7.63151 55.25 10.8745 53.9067 13.2656 51.5156C15.6567 49.1245 17 45.8815 17 42.5C17 39.1185 15.6567 35.8755 13.2656 33.4844C10.8745 31.0933 7.63151 29.75 4.25 29.75C3.12283 29.75 2.04183 29.3022 1.2448 28.5052C0.447767 27.7082 0 26.6272 0 25.5V12.75ZM34 4.25V12.75H42.5V4.25H34ZM42.5 29.75V21.25H34V29.75H42.5ZM102 29.75V21.25H93.5V29.75H102ZM93.5 12.75H102V4.25H93.5V12.75ZM42.5 38.25H34V46.75H42.5V38.25ZM102 46.75V38.25H93.5V46.75H102ZM42.5 55.25H34V63.75H42.5V55.25ZM102 63.75V55.25H93.5V63.75H102ZM34 72.25V80.75H42.5V72.25H34ZM93.5 80.75H102V72.25H93.5V80.75Z" fill="white"/>
<path d="M90 43C90 48.8348 87.6822 54.4306 83.5564 58.5564C79.4306 62.6822 73.8348 65 68 65C62.1652 65 56.5695 62.6822 52.4437 58.5564C48.3179 54.4306 46 48.8348 46 43C46 37.1652 48.3179 31.5695 52.4437 27.4437C56.5695 23.3179 62.1652 21 68 21C73.8348 21 79.4306 23.3179 83.5564 27.4437C87.6822 31.5695 90 37.1652 90 43ZM61.114 37.5907H63.3828C63.7623 37.5907 64.0647 37.28 64.1142 36.9032C64.3617 35.0992 65.5992 33.7848 67.8047 33.7848C69.6912 33.7848 71.4183 34.728 71.4183 36.9967C71.4183 38.743 70.3897 39.546 68.7645 40.767C66.9137 42.1118 65.448 43.682 65.5525 46.2313L65.5607 46.828C65.5636 47.0084 65.6373 47.1805 65.766 47.307C65.8946 47.4336 66.0678 47.5045 66.2482 47.5045H68.4785C68.6608 47.5045 68.8357 47.4321 68.9646 47.3031C69.0936 47.1742 69.166 46.9993 69.166 46.817V46.5282C69.166 44.5537 69.9168 43.979 71.9435 42.4417C73.6183 41.1685 75.3645 39.755 75.3645 36.7878C75.3645 32.6325 71.8555 30.625 68.0138 30.625C64.5295 30.625 60.7125 32.2475 60.4513 36.9115C60.4475 37.0003 60.4619 37.0889 60.4937 37.172C60.5254 37.255 60.5739 37.3306 60.6359 37.3943C60.698 37.4579 60.7724 37.5081 60.8547 37.5419C60.9369 37.5757 61.0251 37.5923 61.114 37.5907ZM67.5078 55.309C69.1853 55.309 70.3375 54.2255 70.3375 52.7597C70.3375 51.2417 69.1825 50.1748 67.5078 50.1748C65.9018 50.1748 64.733 51.2417 64.733 52.7597C64.733 54.2255 65.899 55.309 67.5078 55.309Z" fill="#5B6BA1"/>
</svg>
