<svg width="94" height="125" viewBox="0 0 94 125" fill="none" xmlns="http://www.w3.org/2000/svg">
<path d="M7.8125 0C5.7405 0 3.75336 0.8231 2.28823 2.28823C0.8231 3.75336 0 5.7405 0 7.8125V117.188C0 119.26 0.8231 121.247 2.28823 122.712C3.75336 124.177 5.7405 125 7.8125 125H31.25V97.6562C31.25 96.6202 31.6616 95.6267 32.3941 94.8941C33.1267 94.1615 34.1202 93.75 35.1562 93.75H58.5938C59.6298 93.75 60.6233 94.1615 61.3559 94.8941C62.0885 95.6267 62.5 96.6202 62.5 97.6562V125H85.9375C88.0095 125 89.9966 124.177 91.4618 122.712C92.9269 121.247 93.75 119.26 93.75 117.188V7.8125C93.75 5.7405 92.9269 3.75336 91.4618 2.28823C89.9966 0.8231 88.0095 0 85.9375 0L7.8125 0ZM15.625 19.5312C15.625 18.4952 16.0366 17.5017 16.7691 16.7691C17.5017 16.0366 18.4952 15.625 19.5312 15.625H27.3438C28.3798 15.625 29.3733 16.0366 30.1059 16.7691C30.8384 17.5017 31.25 18.4952 31.25 19.5312V27.3438C31.25 28.3798 30.8384 29.3733 30.1059 30.1059C29.3733 30.8384 28.3798 31.25 27.3438 31.25H19.5312C18.4952 31.25 17.5017 30.8384 16.7691 30.1059C16.0366 29.3733 15.625 28.3798 15.625 27.3438V19.5312ZM39.0625 19.5312C39.0625 18.4952 39.4741 17.5017 40.2066 16.7691C40.9392 16.0366 41.9327 15.625 42.9688 15.625H50.7812C51.8173 15.625 52.8108 16.0366 53.5434 16.7691C54.276 17.5017 54.6875 18.4952 54.6875 19.5312V27.3438C54.6875 28.3798 54.276 29.3733 53.5434 30.1059C52.8108 30.8384 51.8173 31.25 50.7812 31.25H42.9688C41.9327 31.25 40.9392 30.8384 40.2066 30.1059C39.4741 29.3733 39.0625 28.3798 39.0625 27.3438V19.5312ZM66.4062 15.625H74.2188C75.2548 15.625 76.2483 16.0366 76.9809 16.7691C77.7135 17.5017 78.125 18.4952 78.125 19.5312V27.3438C78.125 28.3798 77.7135 29.3733 76.9809 30.1059C76.2483 30.8384 75.2548 31.25 74.2188 31.25H66.4062C65.3702 31.25 64.3767 30.8384 63.6441 30.1059C62.9115 29.3733 62.5 28.3798 62.5 27.3438V19.5312C62.5 18.4952 62.9115 17.5017 63.6441 16.7691C64.3767 16.0366 65.3702 15.625 66.4062 15.625ZM15.625 42.9688C15.625 41.9327 16.0366 40.9392 16.7691 40.2066C17.5017 39.4741 18.4952 39.0625 19.5312 39.0625H27.3438C28.3798 39.0625 29.3733 39.4741 30.1059 40.2066C30.8384 40.9392 31.25 41.9327 31.25 42.9688V50.7812C31.25 51.8173 30.8384 52.8108 30.1059 53.5434C29.3733 54.2759 28.3798 54.6875 27.3438 54.6875H19.5312C18.4952 54.6875 17.5017 54.2759 16.7691 53.5434C16.0366 52.8108 15.625 51.8173 15.625 50.7812V42.9688ZM42.9688 39.0625H50.7812C51.8173 39.0625 52.8108 39.4741 53.5434 40.2066C54.276 40.9392 54.6875 41.9327 54.6875 42.9688V50.7812C54.6875 51.8173 54.276 52.8108 53.5434 53.5434C52.8108 54.2759 51.8173 54.6875 50.7812 54.6875H42.9688C41.9327 54.6875 40.9392 54.2759 40.2066 53.5434C39.4741 52.8108 39.0625 51.8173 39.0625 50.7812V42.9688C39.0625 41.9327 39.4741 40.9392 40.2066 40.2066C40.9392 39.4741 41.9327 39.0625 42.9688 39.0625ZM62.5 42.9688C62.5 41.9327 62.9115 40.9392 63.6441 40.2066C64.3767 39.4741 65.3702 39.0625 66.4062 39.0625H74.2188C75.2548 39.0625 76.2483 39.4741 76.9809 40.2066C77.7135 40.9392 78.125 41.9327 78.125 42.9688V50.7812C78.125 51.8173 77.7135 52.8108 76.9809 53.5434C76.2483 54.2759 75.2548 54.6875 74.2188 54.6875H66.4062C65.3702 54.6875 64.3767 54.2759 63.6441 53.5434C62.9115 52.8108 62.5 51.8173 62.5 50.7812V42.9688ZM19.5312 62.5H27.3438C28.3798 62.5 29.3733 62.9115 30.1059 63.6441C30.8384 64.3767 31.25 65.3702 31.25 66.4062V74.2188C31.25 75.2548 30.8384 76.2483 30.1059 76.9809C29.3733 77.7135 28.3798 78.125 27.3438 78.125H19.5312C18.4952 78.125 17.5017 77.7135 16.7691 76.9809C16.0366 76.2483 15.625 75.2548 15.625 74.2188V66.4062C15.625 65.3702 16.0366 64.3767 16.7691 63.6441C17.5017 62.9115 18.4952 62.5 19.5312 62.5ZM39.0625 66.4062C39.0625 65.3702 39.4741 64.3767 40.2066 63.6441C40.9392 62.9115 41.9327 62.5 42.9688 62.5H50.7812C51.8173 62.5 52.8108 62.9115 53.5434 63.6441C54.276 64.3767 54.6875 65.3702 54.6875 66.4062V74.2188C54.6875 75.2548 54.276 76.2483 53.5434 76.9809C52.8108 77.7135 51.8173 78.125 50.7812 78.125H42.9688C41.9327 78.125 40.9392 77.7135 40.2066 76.9809C39.4741 76.2483 39.0625 75.2548 39.0625 74.2188V66.4062ZM66.4062 62.5H74.2188C75.2548 62.5 76.2483 62.9115 76.9809 63.6441C77.7135 64.3767 78.125 65.3702 78.125 66.4062V74.2188C78.125 75.2548 77.7135 76.2483 76.9809 76.9809C76.2483 77.7135 75.2548 78.125 74.2188 78.125H66.4062C65.3702 78.125 64.3767 77.7135 63.6441 76.9809C62.9115 76.2483 62.5 75.2548 62.5 74.2188V66.4062C62.5 65.3702 62.9115 64.3767 63.6441 63.6441C64.3767 62.9115 65.3702 62.5 66.4062 62.5Z" fill="white"/>
</svg>
