<svg width="125" height="109" viewBox="0 0 125 109" fill="none" xmlns="http://www.w3.org/2000/svg">
<path d="M62.5063 101.192C97.0243 101.192 125 78.5452 125 50.5958C125 22.6465 97.0243 0 62.5063 0C27.9884 0 0.0126827 22.6465 0.0126827 50.5958C0.0126827 61.5664 4.33353 71.7099 11.657 80.0047C11.1932 85.9643 8.87409 91.2671 6.43293 95.3051C5.09029 97.543 3.72324 99.343 2.72237 100.559C2.20973 101.167 1.81914 101.63 1.5262 101.946C1.37973 102.092 1.28209 102.213 1.20885 102.286L1.13562 102.359C0.0126827 103.478 -0.304668 105.132 0.305622 106.592C0.915911 108.051 2.33178 109 3.91854 109C10.9247 109 17.9796 106.835 23.8384 104.305C29.4286 101.873 34.1889 98.9781 37.0939 96.8619C44.8568 99.6592 53.4496 101.216 62.5063 101.216V101.192ZM31.2595 42.8119C33.3313 42.8119 35.3182 43.632 36.7832 45.0917C38.2482 46.5515 39.0712 48.5314 39.0712 50.5958C39.0712 52.6603 38.2482 54.6402 36.7832 56.0999C35.3182 57.5597 33.3313 58.3798 31.2595 58.3798C29.1877 58.3798 27.2008 57.5597 25.7358 56.0999C24.2708 54.6402 23.4478 52.6603 23.4478 50.5958C23.4478 48.5314 24.2708 46.5515 25.7358 45.0917C27.2008 43.632 29.1877 42.8119 31.2595 42.8119ZM62.5063 42.8119C64.5781 42.8119 66.5651 43.632 68.03 45.0917C69.495 46.5515 70.318 48.5314 70.318 50.5958C70.318 52.6603 69.495 54.6402 68.03 56.0999C66.5651 57.5597 64.5781 58.3798 62.5063 58.3798C60.4345 58.3798 58.4476 57.5597 56.9826 56.0999C55.5177 54.6402 54.6946 52.6603 54.6946 50.5958C54.6946 48.5314 55.5177 46.5515 56.9826 45.0917C58.4476 43.632 60.4345 42.8119 62.5063 42.8119ZM85.9415 50.5958C85.9415 48.5314 86.7645 46.5515 88.2295 45.0917C89.6944 43.632 91.6814 42.8119 93.7532 42.8119C95.825 42.8119 97.8119 43.632 99.2769 45.0917C100.742 46.5515 101.565 48.5314 101.565 50.5958C101.565 52.6603 100.742 54.6402 99.2769 56.0999C97.8119 57.5597 95.825 58.3798 93.7532 58.3798C91.6814 58.3798 89.6944 57.5597 88.2295 56.0999C86.7645 54.6402 85.9415 52.6603 85.9415 50.5958Z" fill="white"/>
</svg>
