<svg width="110" height="77" viewBox="0 0 110 77" fill="none" xmlns="http://www.w3.org/2000/svg">
<path d="M12.375 9.625C12.375 7.07229 13.3891 4.62413 15.1941 2.8191C16.9991 1.01406 19.4473 0 22 0C24.5527 0 27.0009 1.01406 28.8059 2.8191C30.6109 4.62413 31.625 7.07229 31.625 9.625C31.625 12.1777 30.6109 14.6259 28.8059 16.4309C27.0009 18.2359 24.5527 19.25 22 19.25C19.4473 19.25 16.9991 18.2359 15.1941 16.4309C13.3891 14.6259 12.375 12.1777 12.375 9.625ZM11 36.7297C9.28125 38.6547 8.25 41.2156 8.25 44C8.25 46.7844 9.28125 49.3453 11 51.2703V36.7297ZM35.8187 28.2562C30.7141 32.7766 27.5 39.3938 27.5 46.75C27.5 52.6453 29.5625 58.0594 33 62.3047V66C33 69.0422 30.5422 71.5 27.5 71.5H16.5C13.4578 71.5 11 69.0422 11 66V61.3938C4.50313 58.3 0 51.6828 0 44C0 33.3609 8.61094 24.75 19.25 24.75H24.75C28.875 24.75 32.6906 26.0391 35.8187 28.2391V28.2562ZM77 66V62.3047C80.4375 58.0594 82.5 52.6453 82.5 46.75C82.5 39.3938 79.2859 32.7766 74.1813 28.2391C77.3094 26.0391 81.125 24.75 85.25 24.75H90.75C101.389 24.75 110 33.3609 110 44C110 51.6828 105.497 58.3 99 61.3938V66C99 69.0422 96.5422 71.5 93.5 71.5H82.5C79.4578 71.5 77 69.0422 77 66ZM78.375 9.625C78.375 7.07229 79.3891 4.62413 81.1941 2.8191C82.9991 1.01406 85.4473 0 88 0C90.5527 0 93.0009 1.01406 94.8059 2.8191C96.6109 4.62413 97.625 7.07229 97.625 9.625C97.625 12.1777 96.6109 14.6259 94.8059 16.4309C93.0009 18.2359 90.5527 19.25 88 19.25C85.4473 19.25 82.9991 18.2359 81.1941 16.4309C79.3891 14.6259 78.375 12.1777 78.375 9.625ZM99 36.7297V51.2875C100.719 49.3453 101.75 46.8016 101.75 44.0172C101.75 41.2328 100.719 38.6719 99 36.7469V36.7297ZM55 0C57.9174 0 60.7153 1.15893 62.7782 3.22183C64.8411 5.28473 66 8.08262 66 11C66 13.9174 64.8411 16.7153 62.7782 18.7782C60.7153 20.8411 57.9174 22 55 22C52.0826 22 49.2847 20.8411 47.2218 18.7782C45.1589 16.7153 44 13.9174 44 11C44 8.08262 45.1589 5.28473 47.2218 3.22183C49.2847 1.15893 52.0826 0 55 0ZM41.25 46.75C41.25 49.5344 42.2812 52.0781 44 54.0203V39.4797C42.2812 41.4219 41.25 43.9656 41.25 46.75ZM66 39.4797V54.0375C67.7188 52.0953 68.75 49.5516 68.75 46.7672C68.75 43.9828 67.7188 41.4219 66 39.4969V39.4797ZM77 46.75C77 54.4328 72.4969 61.05 66 64.1438V71.5C66 74.5422 63.5422 77 60.5 77H49.5C46.4578 77 44 74.5422 44 71.5V64.1438C37.5031 61.05 33 54.4328 33 46.75C33 36.1109 41.6109 27.5 52.25 27.5H57.75C68.3891 27.5 77 36.1109 77 46.75Z" fill="white"/>
</svg>
