<svg width="110" height="88" viewBox="0 0 110 88" fill="none" xmlns="http://www.w3.org/2000/svg">
<path d="M28.7637 16.5C31.0512 16.5 33.245 15.6308 34.8625 14.0836C36.48 12.5365 37.3887 10.438 37.3887 8.25C37.3887 6.06196 36.48 3.96354 34.8625 2.41637C33.245 0.869194 31.0512 0 28.7637 0C26.4762 0 24.2824 0.869194 22.6649 2.41637C21.0474 3.96354 20.1387 6.06196 20.1387 8.25C20.1387 10.438 21.0474 12.5365 22.6649 14.0836C24.2824 15.6308 26.4762 16.5 28.7637 16.5ZM27.3262 82.5V60.5H30.2012V82.5C30.2012 85.5422 32.7707 88 35.9512 88C39.1317 88 41.7012 85.5422 41.7012 82.5V33H51.7637H63.2637H66.1387C69.3192 33 71.8887 30.5422 71.8887 27.5C71.8887 24.4578 69.3192 22 66.1387 22H63.2637V11H97.7637V44H63.2637V38.5H51.7637V46.75C51.7637 51.3047 55.627 55 60.3887 55H100.639C105.4 55 109.264 51.3047 109.264 46.75V8.25C109.264 3.69531 105.4 0 100.639 0H60.3887C55.627 0 51.7637 3.69531 51.7637 8.25V22H37.9457H26.0863C20.0309 22 14.4246 25.0422 11.2981 30.0094L0.822282 46.6813C-0.812874 49.2766 0.0675944 52.6625 2.78088 54.2266C5.49416 55.7906 9.034 54.9484 10.6692 52.3531L15.8262 44.1547V82.5C15.8262 85.5422 18.3957 88 21.5762 88C24.7567 88 27.3262 85.5422 27.3262 82.5Z" fill="white"/>
</svg>
