<svg width="15832" height="15703" viewBox="0 0 15832 15703" fill="none" xmlns="http://www.w3.org/2000/svg">
<path d="M7121.42 22.396C6074.26 146.884 5206.52 395.861 4338.77 827.91C2844.93 1571.18 1567.11 2841.69 827.512 4309.93L659.088 4643.12L834.834 4741.97C1398.69 5064.18 1925.92 5419.34 2379.94 5792.8L2636.23 6005.17L2379.94 6257.8C1911.28 6730.13 1362.07 7477.06 1299.83 7729.7C1285.18 7788.28 1259.55 7832.22 1244.91 7832.22C1204.63 7832.22 263.66 6796.03 120.866 6590.99C62.2838 6506.78 0.0403683 7154.85 0.0403683 7850.52C-3.62101 9099.07 241.691 10168.2 772.591 11263C1391.36 12529.8 2394.58 13653.9 3621.14 14448.4C3910.39 14638.8 4463.26 14931.7 4767.15 15056.2L4902.62 15114.8L5052.74 14851.2C5287.07 14444.8 5638.56 13957.8 5964.42 13591.6C6129.19 13404.9 6279.3 13251.1 6293.95 13251.1C6308.59 13251.1 6374.5 13375.6 6440.4 13525.7C6542.92 13756.4 6612.49 13847.9 6883.43 14104.2C7059.17 14272.7 7341.1 14514.3 7509.52 14642.5C7677.95 14767 7820.74 14880.5 7824.4 14895.1C7828.06 14906.1 7652.32 15081.8 7432.64 15283.2L7029.88 15649.4L7238.58 15671.3C8099.01 15770.2 9409.78 15623.7 10321.5 15330.8C12360.8 14679.1 14070.7 13229.2 15011.7 11354.5C15114.2 11145.8 15194.8 10970.1 15187.4 10966.4C15183.8 10962.7 15019 10871.2 14828.6 10765C14319.7 10479.4 13448.3 9853.32 13441 9769.11C13437.3 9758.13 13514.2 9699.54 13605.7 9640.96C13810.8 9512.81 14356.3 8886.71 14649.2 8443.67C14766.4 8264.27 14868.9 8099.5 14879.9 8077.53C14898.2 8029.93 15242.4 8385.09 15571.9 8776.86L15762.3 9011.2L15795.2 8831.79C15853.8 8491.27 15839.2 7151.19 15769.6 6708.16C15549.9 5309.49 14975.1 4002.37 14107.3 2925.91C13470.2 2135.04 12426.8 1289.25 11537 842.555L11321 732.713L11185.5 963.382C10918.3 1417.4 10061.5 2486.54 9962.65 2486.54C9948 2486.54 9907.73 2420.63 9871.11 2343.74C9768.59 2102.09 8970.41 1402.75 8472.47 1109.84C8384.59 1058.58 8311.37 1003.66 8311.37 989.012C8311.37 956.06 8750.73 531.334 9039.98 282.357C9149.82 187.16 9234.03 102.947 9223.05 91.9631C9153.48 22.396 7564.45 -32.5254 7121.42 22.396ZM7952.55 1523.58C8311.37 1754.25 8509.08 1864.09 8534.71 1838.46C8556.68 1816.49 8432.19 1713.97 8164.91 1534.56C7945.23 1388.11 7762.16 1256.3 7762.16 1241.65C7762.16 1227.01 7806.1 1201.38 7857.36 1190.39C8055.07 1139.13 8684.83 1538.23 9292.61 2102.09C9530.6 2321.77 9581.86 2398.66 9775.92 2794.1C10065.2 3376.26 10369.1 3793.66 11053.7 4540.6C11573.7 5111.78 11895.9 5397.37 12847.8 6136.98C12858.8 6144.3 12734.3 6279.77 12576.9 6440.88C12262 6755.76 11965.4 6942.49 11709.1 6975.44C11562.7 6997.41 11537 6986.43 11467.5 6902.21C11427.2 6847.29 11383.3 6737.45 11368.6 6653.24C11328.3 6429.89 11181.9 6012.49 11075.7 5833.08C10830.4 5415.68 10310.5 5298.51 10054.2 5598.75C10006.6 5657.33 9958.99 5726.9 9948 5752.53C9937.02 5785.48 9882.1 5763.51 9772.26 5679.3C9431.75 5426.66 9442.73 5430.32 8801.99 5521.86C8380.93 5587.76 8153.93 5602.41 7934.24 5584.1C6920.04 5507.21 6616.15 5521.86 6213.4 5660.99C6055.96 5719.57 6026.67 5719.57 5938.79 5668.31C5858.24 5624.38 5836.28 5584.1 5828.95 5444.97C5817.97 5287.53 5828.95 5261.9 5960.76 5130.08C6121.86 4968.98 6359.85 4866.46 6839.49 4749.3C7092.13 4687.05 7158.03 4654.1 7253.23 4544.26C7363.07 4419.77 7366.73 4401.46 7348.42 4181.78C7319.13 3800.99 7194.65 3603.27 6583.2 2977.17C6048.63 2427.95 6041.31 2420.63 6041.31 2255.87C6041.31 2050.83 6107.22 1992.24 6330.56 1992.24C6484.34 1992.24 6535.6 2017.87 6887.09 2274.17C7103.11 2431.61 7297.16 2559.76 7319.13 2559.76C7410.67 2559.76 7344.76 2486.54 7081.14 2288.82C6795.56 2069.13 6663.75 1904.37 6663.75 1761.57C6663.75 1666.38 6846.82 1461.34 6931.03 1461.34C6960.32 1461.34 7194.65 1600.47 7450.94 1772.56C7710.9 1940.98 7934.24 2072.79 7952.55 2061.81C8003.81 2028.86 7952.55 1981.26 7659.64 1783.54C7300.83 1545.55 7212.95 1465 7212.95 1377.12C7212.95 1296.57 7311.81 1168.42 7370.39 1168.42C7388.7 1168.42 7652.32 1325.86 7952.55 1523.58ZM6960.32 3863.23C7040.87 4024.33 7066.5 4126.85 7059.17 4229.37C7044.53 4394.14 6996.93 4423.43 6612.49 4518.63C6297.61 4591.86 5953.44 4749.3 5788.68 4884.77C5466.48 5159.38 5440.85 5723.24 5741.08 5898.98C5796 5931.94 5902.18 5968.55 5979.07 5983.2L6114.54 6008.83L5986.39 6180.91C5799.66 6440.88 5777.69 6517.77 5825.29 6799.69C5957.1 7619.85 5968.08 7791.94 5905.84 8213.01C5836.28 8707.3 5858.24 9216.24 5964.42 9553.09C6063.28 9864.31 6063.28 9974.15 5960.76 10043.7C5649.54 10263.4 5301.71 9882.62 5107.66 9110.05C5030.77 8813.48 5001.48 8747.57 4884.32 8641.39C4759.83 8527.89 4737.86 8520.56 4543.81 8535.21C4152.04 8564.5 3895.75 8729.27 3313.59 9315.09C2775.36 9860.65 2676.51 9922.89 2486.12 9846C2354.31 9791.08 2284.74 9597.02 2336 9446.91C2357.97 9388.32 2489.78 9183.28 2632.57 8989.23C2866.9 8670.68 2940.13 8527.89 2866.9 8527.89C2848.59 8527.89 2746.07 8656.04 2636.23 8809.82C2420.21 9110.05 2273.76 9223.56 2112.65 9223.56C1988.17 9223.56 1830.73 9077.1 1830.73 8959.94C1830.73 8912.34 1962.54 8678.01 2123.64 8436.35C2284.74 8194.7 2416.55 7986 2416.55 7967.69C2416.55 7868.83 2292.06 7993.32 2076.04 8308.2C1863.68 8623.08 1812.42 8674.34 1724.55 8674.34C1607.38 8674.34 1537.82 8615.76 1537.82 8516.9C1537.82 8476.63 1684.27 8220.33 1867.34 7945.72C2046.75 7667.45 2196.87 7414.81 2196.87 7378.2C2196.87 7272.02 2138.28 7341.59 1863.68 7758.99C1720.89 7982.34 1589.08 8150.76 1570.77 8139.78C1552.46 8128.79 1537.82 8048.24 1537.82 7964.03C1537.82 7733.36 1812.42 7315.96 2431.19 6612.96C2621.59 6396.94 2702.14 6338.36 3042.64 6169.93C3255 6063.75 3496.66 5939.26 3573.54 5891.66C3859.13 5715.91 4419.32 5287.53 4668.3 5053.19C5561.67 4207.41 5590.96 4178.11 6169.46 3445.83L6378.16 3174.88L6616.15 3409.21C6758.94 3548.35 6894.41 3727.76 6960.32 3863.23ZM10676.6 5748.87C10826.7 5840.4 11028.1 6232.17 11112.3 6605.64C11218.5 7059.66 11269.8 7132.88 11540.7 7209.77C11665.2 7246.39 11969.1 7176.82 12203.4 7059.66C12287.6 7015.72 12606.2 6733.79 12913.7 6437.21C13441 5917.29 13473.9 5891.66 13613 5891.66C13730.2 5891.66 13777.8 5913.63 13836.4 5986.86C13975.5 6166.27 13942.6 6283.43 13620.4 6726.47C13459.3 6949.81 13327.5 7151.19 13327.5 7169.5C13327.5 7264.7 13411.7 7191.47 13624 6913.2C13884 6572.69 14034.1 6481.15 14213.5 6554.38C14349 6609.3 14444.2 6781.39 14389.3 6876.58C14370.9 6916.86 14228.2 7132.88 14078 7356.23C13927.9 7583.24 13814.4 7784.62 13829.1 7806.59C13854.7 7850.52 13913.3 7784.62 14213.5 7356.23C14436.8 7041.35 14557.7 6986.43 14663.9 7151.19C14726.1 7246.39 14722.4 7250.05 14374.6 7788.28C14180.6 8088.52 14023.1 8352.14 14023.1 8374.11C14023.1 8480.29 14103.7 8392.41 14352.6 8015.29C14499.1 7791.94 14630.9 7612.53 14645.5 7612.53C14718.8 7612.53 14715.1 7810.25 14638.2 7986C14535.7 8227.65 14107.3 8806.16 13770.5 9161.31C13547.1 9395.65 13459.3 9457.89 13085.8 9640.96C12408.4 9970.49 11588.3 10611.2 10775.5 11449.7C10585.1 11647.4 10061.5 12288.2 9867.45 12566.4C9812.53 12643.3 9812.53 12643.3 9680.72 12518.8C9534.27 12376 9354.86 12050.2 9318.24 11852.5C9288.95 11706 9354.86 11614.5 9512.3 11585.2C9790.56 11530.3 10347.1 11321.6 10508.2 11208.1C10830.4 10984.7 10965.9 10563.6 10801.1 10296.4C10651 10047.4 10427.6 9985.14 10068.8 10098.6C9940.68 10138.9 9827.18 10168.2 9823.51 10160.9C9816.19 10153.6 9944.34 9970.49 10105.4 9750.8C10266.5 9534.78 10409.3 9315.09 10424 9271.16C10435 9223.56 10405.7 8948.95 10361.7 8663.36C10292.2 8227.65 10284.8 8084.86 10310.5 7777.3C10325.1 7575.92 10339.8 7195.13 10339.8 6935.17C10343.4 6543.4 10328.8 6411.58 10259.2 6195.56C10164 5884.34 10160.4 5825.76 10240.9 5737.88C10321.5 5650.01 10522.8 5653.67 10676.6 5748.87ZM4737.86 8901.35C4767.15 8948.95 4807.43 9069.78 4829.4 9172.3C4880.66 9432.26 5038.09 9835.02 5147.94 10003.4C5341.99 10300 5752.06 10457.5 6023.01 10340.3C6220.72 10259.7 6286.62 10193.8 6315.92 10040.1C6337.88 9915.57 6341.55 9911.91 6414.77 9977.81C6455.05 10018.1 6564.89 10149.9 6656.42 10274.4C6901.74 10607.6 6953 10618.6 7725.55 10479.4C7963.54 10435.5 8131.96 10431.8 8439.51 10453.8C9127.85 10505.1 9728.32 10490.4 9995.6 10413.5C10127.4 10380.6 10281.2 10340.3 10336.1 10333C10482.6 10303.7 10581.4 10406.2 10581.4 10581.9C10581.4 10860.2 10211.6 11127.5 9640.45 11259.3C9131.51 11376.5 9021.67 11486.3 9050.96 11856.1C9076.59 12229.6 9212.06 12442 9772.26 13013.1C10050.5 13295.1 10299.5 13562.3 10321.5 13606.3C10420.3 13804 10343.4 13987.1 10134.7 14038.3C9984.62 14074.9 9852.81 14016.4 9472.02 13730.8C9285.29 13588 9109.55 13470.8 9087.58 13470.8C8988.72 13470.8 9058.29 13551.4 9329.23 13752.7C9512.3 13891.9 9633.12 14012.7 9680.72 14107.9C9746.63 14243.4 9746.63 14254.4 9688.04 14367.9C9651.43 14433.8 9581.86 14507 9530.6 14529C9450.05 14565.6 9402.46 14547.3 9058.29 14323.9C8479.79 13946.8 8465.14 13939.5 8439.51 13979.8C8428.53 14001.7 8494.43 14071.3 8589.63 14137.2C9069.27 14470.4 9190.1 14572.9 9190.1 14642.5C9190.1 14745 9061.95 14865.8 8981.4 14836.5C8944.78 14821.9 8692.15 14664.4 8417.55 14488.7C8146.6 14312.9 7901.29 14166.5 7879.32 14166.5C7773.14 14166.5 7861.02 14247 8238.14 14496C8648.21 14767 8695.81 14840.2 8461.48 14832.9C8399.24 14832.9 8289.4 14799.9 8212.51 14763.3C8007.47 14668.1 7399.68 14206.8 7092.13 13910.2C6854.14 13686.8 6791.89 13599 6597.84 13203.5C6323.24 12658 5971.75 12163.7 5426.2 11563.2C4873.33 10959.1 4708.57 10809 3957.99 10219.5L3324.57 9721.51L3705.35 9348.05C3998.26 9062.46 4126.41 8963.6 4283.85 8901.35C4551.13 8798.83 4671.96 8798.83 4737.86 8901.35Z" fill="white"/>
</svg>
