<svg width="130" height="95" viewBox="0 0 130 95" fill="none" xmlns="http://www.w3.org/2000/svg">
<g clip-path="url(#clip0_11_13)">
<path d="M119.167 27.1429V81.4286C119.167 83.2946 117.542 84.8214 115.556 84.8214H72.2222C72.2222 75.4487 64.1424 67.8571 54.1667 67.8571H39.7222C29.7465 67.8571 21.6667 75.4487 21.6667 84.8214H14.4444C12.4583 84.8214 10.8333 83.2946 10.8333 81.4286V27.1429H119.167ZM14.4444 0C6.47743 0 0 6.08594 0 13.5714V81.4286C0 88.9141 6.47743 95 14.4444 95H115.556C123.523 95 130 88.9141 130 81.4286V13.5714C130 6.08594 123.523 0 115.556 0H14.4444ZM61.3889 47.5C61.3889 37.0528 49.3519 30.5232 39.7222 35.7467C35.253 38.1711 32.5 42.6514 32.5 47.5C32.5 57.9472 44.537 64.4768 54.1667 59.2533C58.6359 56.8289 61.3889 52.3486 61.3889 47.5Z" fill="white"/>
<path d="M107.127 57.8414C107.127 61.3372 105.904 64.5664 103.845 67.1863L114.231 76.8359C115.256 77.7879 115.256 79.334 114.231 80.286C113.205 81.238 111.54 81.238 110.515 80.286L100.129 70.6364C97.307 72.5557 93.8288 73.6829 90.0633 73.6829C80.6375 73.6829 73 66.5923 73 57.8414C73 49.0906 80.6375 42 90.0633 42C99.4892 42 107.127 49.0906 107.127 57.8414ZM90.0633 68.8086C91.6146 68.8086 93.1508 68.5249 94.584 67.9737C96.0172 67.4226 97.3195 66.6148 98.4164 65.5964C99.5134 64.578 100.384 63.369 100.977 62.0384C101.571 60.7078 101.876 59.2817 101.876 57.8414C101.876 56.4012 101.571 54.9751 100.977 53.6445C100.384 52.3139 99.5134 51.1049 98.4164 50.0865C97.3195 49.0681 96.0172 48.2603 94.584 47.7091C93.1508 47.158 91.6146 46.8743 90.0633 46.8743C88.512 46.8743 86.9759 47.158 85.5427 47.7091C84.1094 48.2603 82.8072 49.0681 81.7102 50.0865C80.6133 51.1049 79.7431 52.3139 79.1495 53.6445C78.5558 54.9751 78.2503 56.4012 78.2503 57.8414C78.2503 59.2817 78.5558 60.7078 79.1495 62.0384C79.7431 63.369 80.6133 64.578 81.7102 65.5964C82.8072 66.6148 84.1094 67.4226 85.5427 67.9737C86.9759 68.5249 88.512 68.8086 90.0633 68.8086Z" fill="white"/>
<circle cx="90" cy="58" r="10.5" stroke="white" stroke-width="3"/>
</g>
<defs>
<clipPath id="clip0_11_13">
<rect width="130" height="95" fill="white"/>
</clipPath>
</defs>
</svg>
