<svg width="105" height="120" viewBox="0 0 105 120" fill="none" xmlns="http://www.w3.org/2000/svg">
<path fill-rule="evenodd" clip-rule="evenodd" d="M52.5 0C47.325 0 38.6775 1.9875 30.54 4.2C22.215 6.45 13.8225 9.1125 8.88754 10.725C6.82422 11.4064 4.99497 12.656 3.60992 14.3303C2.22486 16.0045 1.34019 18.0355 1.05754 20.19C-3.41246 53.7675 6.96004 78.6525 19.545 95.115C24.8819 102.157 31.2452 108.359 38.4225 113.513C41.3175 115.56 44.0025 117.128 46.2825 118.2C48.3825 119.19 50.64 120 52.5 120C54.36 120 56.61 119.19 58.7175 118.2C61.4662 116.864 64.0957 115.296 66.5775 113.513C73.755 108.359 80.1183 102.157 85.455 95.115C98.04 78.6525 108.413 53.7675 103.943 20.19C103.66 18.0345 102.776 16.0023 101.391 14.3267C100.006 12.6512 98.1764 11.4002 96.1125 10.7175C88.9486 8.3686 81.729 6.19297 74.46 4.1925C66.3225 1.995 57.675 0 52.5 0ZM68.595 38.595C69.2992 37.8909 70.2542 37.4953 71.25 37.4953C72.2459 37.4953 73.2009 37.8909 73.905 38.595C74.6092 39.2992 75.0048 40.2542 75.0048 41.25C75.0048 42.2458 74.6092 43.2008 73.905 43.905L51.405 66.405C51.0567 66.7542 50.6429 67.0313 50.1873 67.2203C49.7317 67.4094 49.2433 67.5067 48.75 67.5067C48.2568 67.5067 47.7684 67.4094 47.3128 67.2203C46.8572 67.0313 46.4434 66.7542 46.095 66.405L34.845 55.155C34.4964 54.8063 34.2198 54.3924 34.0311 53.9369C33.8424 53.4813 33.7453 52.9931 33.7453 52.5C33.7453 52.0069 33.8424 51.5187 34.0311 51.0631C34.2198 50.6076 34.4964 50.1937 34.845 49.845C35.1937 49.4963 35.6076 49.2198 36.0632 49.0311C36.5187 48.8424 37.007 48.7453 37.5 48.7453C37.9931 48.7453 38.4814 48.8424 38.9369 49.0311C39.3925 49.2198 39.8064 49.4963 40.155 49.845L48.75 58.4475L68.595 38.595Z" fill="white"/>
</svg>
